#Comment line ignore any data following # character 
#Hierarchical Translation and Rotation (.htr) file 
[Header]	
#Header keywords are followed by a single value 
FileType HTR		#Single word string
DataType HTRS		#Translation followed by rotation and scale data
FileVersion 1		#integer
NumSegments 84		#integer
NumFrames 2		#integer
DataFrameRate 30		#integer, data frame rate in this file
EulerRotationOrder ZYX
CalibrationUnits mm
RotationUnits Degrees
GlobalAxisofGravity Y
BoneLengthAxis Y
ScaleFactor 1.00
[SegmentNames&Hierarchy]
#CHILD	PARENT
MASTER GLOBAL
root MASTER
chest root
L_mid_tent01 root
R_mid_tent01 root
spine01 root
Bip01_Neck chest
L_humerus chest
R_humerus chest
weapon_bone chest
Bip01_Head Bip01_Neck
eye_left_bone Bip01_Head
eye_right_bone Bip01_Head
L_forearm L_humerus
L_front_hand L_forearm
L_weapon_bone L_forearm
L_front_hand01_01 L_front_hand
L_front_hand02_01 L_front_hand
L_front_hand03_01 L_front_hand
L_front_hand01_02 L_front_hand01_01
L_front_hand02_02 L_front_hand02_01
L_front_hand03_02 L_front_hand03_01
R_forearm R_humerus
R_front_hand R_forearm
R_weapon_bone R_forearm
R_front_hand01_01 R_front_hand
R_front_hand02_01 R_front_hand
R_front_hand03_01 R_front_hand
R_front_hand01_02 R_front_hand01_01
R_front_hand02_02 R_front_hand02_01
R_front_hand03_02 R_front_hand03_01
null_rope01_connect L_mid_tent01
Rope1_Seg01 null_rope01_connect
Rope1_Seg02 Rope1_Seg01
Rope1_Seg03 Rope1_Seg02
Rope1_Seg04 Rope1_Seg03
Rope1_Seg05 Rope1_Seg04
Rope1_Seg06 Rope1_Seg05
Rope1_Seg07 Rope1_Seg06
Rope1_Seg09 Rope1_Seg07
L_mid_hand01 Rope1_Seg09
L_mid_hand02 Rope1_Seg09
L_mid_hand03 Rope1_Seg09
null_rope02_connect R_mid_tent01
Rope2_Seg01 null_rope02_connect
Rope2_Seg02 Rope2_Seg01
Rope2_Seg03 Rope2_Seg02
Rope2_Seg04 Rope2_Seg03
Rope2_Seg05 Rope2_Seg04
Rope2_Seg06 Rope2_Seg05
Rope2_Seg07 Rope2_Seg06
Rope2_Seg09 Rope2_Seg07
R_mid_hand01 Rope2_Seg09
R_mid_hand02 Rope2_Seg09
R_mid_hand03 Rope2_Seg09
spine02 spine01
spine03 spine02
pelvis spine03
null_rope03_connect pelvis
null_rope04_connect pelvis
Rope3_Seg01 null_rope03_connect
Rope3_Seg02 Rope3_Seg01
Rope3_Seg03 Rope3_Seg02
Rope3_Seg04 Rope3_Seg03
Rope3_Seg05 Rope3_Seg04
Rope3_Seg06 Rope3_Seg05
Rope3_Seg07 Rope3_Seg06
Rope3_Seg08 Rope3_Seg07
Rope3_Seg09 Rope3_Seg08
R_rear_hand01 Rope3_Seg09
R_rear_hand02 Rope3_Seg09
R_rear_hand03 Rope3_Seg09
Rope4_Seg01 null_rope04_connect
Rope4_Seg02 Rope4_Seg01
Rope4_Seg03 Rope4_Seg02
Rope4_Seg04 Rope4_Seg03
Rope4_Seg05 Rope4_Seg04
Rope4_Seg06 Rope4_Seg05
Rope4_Seg07 Rope4_Seg06
Rope4_Seg08 Rope4_Seg07
Rope4_Seg09 Rope4_Seg08
L_rear_hand01 Rope4_Seg09
L_rear_hand02 Rope4_Seg09
L_rear_hand03 Rope4_Seg09
[BasePosition]
#SegmentName Tx, Ty, Tz, Rx, Ry, Rz, BoneLength
MASTER 0.000000 0.000000 0.000000 -90.000000 0.000000 0.000000 10.000000 
root 0.000000 0.000000 0.000000 0.000000 0.000000 0.000000 10.000000 
chest 0.000000 0.000000 0.000000 0.000000 0.000000 0.000000 10.000000 
L_mid_tent01 0.000000 0.000000 0.000000 0.000000 0.000000 0.000000 10.000000 
R_mid_tent01 0.000000 0.000000 0.000000 0.000000 0.000000 0.000000 10.000000 
spine01 0.000000 0.000000 0.000000 0.000000 0.000000 0.000000 10.000000 
Bip01_Neck 0.000000 0.000000 0.000000 0.000000 0.000000 0.000000 10.000000 
L_humerus 0.000000 0.000000 0.000000 0.000000 0.000000 0.000000 10.000000 
R_humerus 0.000000 0.000000 0.000000 0.000000 0.000000 0.000000 10.000000 
weapon_bone 0.000000 0.000000 0.000000 0.000000 0.000000 0.000000 10.000000 
Bip01_Head 0.000000 0.000000 0.000000 0.000000 0.000000 0.000000 10.000000 
eye_left_bone 0.000000 0.000000 0.000000 0.000000 0.000000 0.000000 10.000000 
eye_right_bone 0.000000 0.000000 0.000000 0.000000 0.000000 0.000000 10.000000 
L_forearm 0.000000 0.000000 0.000000 0.000000 0.000000 0.000000 10.000000 
L_front_hand 0.000000 0.000000 0.000000 0.000000 0.000000 0.000000 10.000000 
L_weapon_bone 0.000000 0.000000 0.000000 0.000000 0.000000 0.000000 10.000000 
L_front_hand01_01 0.000000 0.000000 0.000000 0.000000 0.000000 0.000000 10.000000 
L_front_hand02_01 0.000000 0.000000 0.000000 0.000000 0.000000 0.000000 10.000000 
L_front_hand03_01 0.000000 0.000000 0.000000 0.000000 0.000000 0.000000 10.000000 
L_front_hand01_02 0.000000 0.000000 0.000000 0.000000 0.000000 0.000000 10.000000 
L_front_hand02_02 0.000000 0.000000 0.000000 0.000000 0.000000 0.000000 10.000000 
L_front_hand03_02 0.000000 0.000000 0.000000 0.000000 0.000000 0.000000 10.000000 
R_forearm 0.000000 0.000000 0.000000 0.000000 0.000000 0.000000 10.000000 
R_front_hand 0.000000 0.000000 0.000000 0.000000 0.000000 0.000000 10.000000 
R_weapon_bone 0.000000 0.000000 0.000000 0.000000 0.000000 0.000000 10.000000 
R_front_hand01_01 0.000000 0.000000 0.000000 0.000000 0.000000 0.000000 10.000000 
R_front_hand02_01 0.000000 0.000000 0.000000 0.000000 0.000000 0.000000 10.000000 
R_front_hand03_01 0.000000 0.000000 0.000000 0.000000 0.000000 0.000000 10.000000 
R_front_hand01_02 0.000000 0.000000 0.000000 0.000000 0.000000 0.000000 10.000000 
R_front_hand02_02 0.000000 0.000000 0.000000 0.000000 0.000000 0.000000 10.000000 
R_front_hand03_02 0.000000 0.000000 0.000000 0.000000 0.000000 0.000000 10.000000 
null_rope01_connect 0.000000 0.000000 0.000000 0.000000 0.000000 0.000000 10.000000 
Rope1_Seg01 0.000000 0.000000 0.000000 0.000000 0.000000 0.000000 10.000000 
Rope1_Seg02 0.000000 0.000000 0.000000 0.000000 0.000000 0.000000 10.000000 
Rope1_Seg03 0.000000 0.000000 0.000000 0.000000 0.000000 0.000000 10.000000 
Rope1_Seg04 0.000000 0.000000 0.000000 0.000000 0.000000 0.000000 10.000000 
Rope1_Seg05 0.000000 0.000000 0.000000 0.000000 0.000000 0.000000 10.000000 
Rope1_Seg06 0.000000 0.000000 0.000000 0.000000 0.000000 0.000000 10.000000 
Rope1_Seg07 0.000000 0.000000 0.000000 0.000000 0.000000 0.000000 10.000000 
Rope1_Seg09 0.000000 0.000000 0.000000 0.000000 0.000000 0.000000 10.000000 
L_mid_hand01 0.000000 0.000000 0.000000 0.000000 0.000000 0.000000 10.000000 
L_mid_hand02 0.000000 0.000000 0.000000 0.000000 0.000000 0.000000 10.000000 
L_mid_hand03 0.000000 0.000000 0.000000 0.000000 0.000000 0.000000 10.000000 
null_rope02_connect 0.000000 0.000000 0.000000 0.000000 0.000000 0.000000 10.000000 
Rope2_Seg01 0.000000 0.000000 0.000000 0.000000 0.000000 0.000000 10.000000 
Rope2_Seg02 0.000000 0.000000 0.000000 0.000000 0.000000 0.000000 10.000000 
Rope2_Seg03 0.000000 0.000000 0.000000 0.000000 0.000000 0.000000 10.000000 
Rope2_Seg04 0.000000 0.000000 0.000000 0.000000 0.000000 0.000000 10.000000 
Rope2_Seg05 0.000000 0.000000 0.000000 0.000000 0.000000 0.000000 10.000000 
Rope2_Seg06 0.000000 0.000000 0.000000 0.000000 0.000000 0.000000 10.000000 
Rope2_Seg07 0.000000 0.000000 0.000000 0.000000 0.000000 0.000000 10.000000 
Rope2_Seg09 0.000000 0.000000 0.000000 0.000000 0.000000 0.000000 10.000000 
R_mid_hand01 0.000000 0.000000 0.000000 0.000000 0.000000 0.000000 10.000000 
R_mid_hand02 0.000000 0.000000 0.000000 0.000000 0.000000 0.000000 10.000000 
R_mid_hand03 0.000000 0.000000 0.000000 0.000000 0.000000 0.000000 10.000000 
spine02 0.000000 0.000000 0.000000 0.000000 0.000000 0.000000 10.000000 
spine03 0.000000 0.000000 0.000000 0.000000 0.000000 0.000000 10.000000 
pelvis 0.000000 0.000000 0.000000 0.000000 0.000000 0.000000 10.000000 
null_rope03_connect 0.000000 0.000000 0.000000 0.000000 0.000000 0.000000 10.000000 
null_rope04_connect 0.000000 0.000000 0.000000 0.000000 0.000000 0.000000 10.000000 
Rope3_Seg01 0.000000 0.000000 0.000000 0.000000 0.000000 0.000000 10.000000 
Rope3_Seg02 0.000000 0.000000 0.000000 0.000000 0.000000 0.000000 10.000000 
Rope3_Seg03 0.000000 0.000000 0.000000 0.000000 0.000000 0.000000 10.000000 
Rope3_Seg04 0.000000 0.000000 0.000000 0.000000 0.000000 0.000000 10.000000 
Rope3_Seg05 0.000000 0.000000 0.000000 0.000000 0.000000 0.000000 10.000000 
Rope3_Seg06 0.000000 0.000000 0.000000 0.000000 0.000000 0.000000 10.000000 
Rope3_Seg07 0.000000 0.000000 0.000000 0.000000 0.000000 0.000000 10.000000 
Rope3_Seg08 0.000000 0.000000 0.000000 0.000000 0.000000 0.000000 10.000000 
Rope3_Seg09 0.000000 0.000000 0.000000 0.000000 0.000000 0.000000 10.000000 
R_rear_hand01 0.000000 0.000000 0.000000 0.000000 0.000000 0.000000 10.000000 
R_rear_hand02 0.000000 0.000000 0.000000 0.000000 0.000000 0.000000 10.000000 
R_rear_hand03 0.000000 0.000000 0.000000 0.000000 0.000000 0.000000 10.000000 
Rope4_Seg01 0.000000 0.000000 0.000000 0.000000 0.000000 0.000000 10.000000 
Rope4_Seg02 0.000000 0.000000 0.000000 0.000000 0.000000 0.000000 10.000000 
Rope4_Seg03 0.000000 0.000000 0.000000 0.000000 0.000000 0.000000 10.000000 
Rope4_Seg04 0.000000 0.000000 0.000000 0.000000 0.000000 0.000000 10.000000 
Rope4_Seg05 0.000000 0.000000 0.000000 0.000000 0.000000 0.000000 10.000000 
Rope4_Seg06 0.000000 0.000000 0.000000 0.000000 0.000000 0.000000 10.000000 
Rope4_Seg07 0.000000 0.000000 0.000000 0.000000 0.000000 0.000000 10.000000 
Rope4_Seg08 0.000000 0.000000 0.000000 0.000000 0.000000 0.000000 10.000000 
Rope4_Seg09 0.000000 0.000000 0.000000 0.000000 0.000000 0.000000 10.000000 
L_rear_hand01 0.000000 0.000000 0.000000 0.000000 0.000000 0.000000 10.000000 
L_rear_hand02 0.000000 0.000000 0.000000 0.000000 0.000000 0.000000 10.000000 
L_rear_hand03 0.000000 0.000000 0.000000 0.000000 0.000000 0.000000 10.000000 
#Beginning of Data. Separated by tabs
#Fr	Tx	Ty	Tz	Rx	Ry	Rz	SF
[MASTER]
31 5460.177734 7638.255371 244.988815 0.001660 0.001660 0.001660 9392.364258
32 5630.740723 7886.382813 109.153343 0.001660 0.001660 0.001660 9690.830078
[root]
31 -17.542124 -62.788696 1500.721069 -92.797562 -27.660908 -90.268150 1502.136475
32 -16.774912 -62.817379 1500.377686 -91.954407 -27.673906 -90.215858 1501.785767
[chest]
31 -84.512650 -34.090519 0.000000 -11.795905 19.858128 160.508484 91.129311
32 -84.512650 -34.090519 0.000000 -11.746889 18.664846 160.577957 91.129311
[L_mid_tent01]
31 27.297792 22.179031 -249.919250 -4.126096 33.524529 64.451172 252.382080
32 27.297749 22.179024 -249.919266 -6.856646 32.116302 58.561264 252.382095
[R_mid_tent01]
31 23.228794 24.509907 226.238495 169.549408 -45.167213 74.960037 228.744751
32 23.228794 24.509907 226.238495 173.325256 -43.814407 69.202713 228.744751
[spine01]
31 -0.361383 -0.195265 0.000000 0.001992 0.001241 26.167986 0.410763
32 -0.361383 -0.195265 0.000000 0.001988 0.001249 25.720297 0.410763
[Bip01_Neck]
31 165.484543 71.581718 0.000119 176.643677 -1.657967 43.431911 180.302734
32 165.484543 71.581718 0.000119 176.643677 -1.657967 43.431911 180.302734
[L_humerus]
31 -13.983130 -135.272980 -120.471481 -6.074693 67.200218 83.910683 181.680161
32 -13.983130 -135.272980 -120.471481 -5.984992 67.465523 84.010612 181.680161
[R_humerus]
31 -13.983309 -135.273102 125.287651 27.020489 -68.148293 68.651039 184.909012
32 -13.983309 -135.273102 125.287651 27.148588 -68.424416 68.520592 184.909012
[weapon_bone]
31 235.964890 -300.705902 0.000000 0.000000 -89.951546 -128.212341 382.234833
32 235.964890 -300.705902 0.000000 0.000000 -89.951546 -128.212341 382.234833
[Bip01_Head]
31 213.327896 186.042252 7.558632 5.200446 6.151311 -43.834991 283.156555
32 213.328003 186.042206 7.558689 5.200446 6.151311 -43.834991 283.156616
[eye_left_bone]
31 -24.626970 125.451866 -64.772606 0.000000 -90.000000 -99.840431 143.318359
32 -24.626970 125.451866 -64.772606 0.000000 -90.000000 -99.840431 143.318359
[eye_right_bone]
31 -24.626970 125.451866 64.327362 0.000000 -89.965736 80.156380 143.117676
32 -24.626970 125.451866 64.327362 0.000000 -89.965736 80.156380 143.117676
[L_forearm]
31 322.776093 0.000000 -0.000119 0.000407 -0.002312 -109.990097 322.776093
32 322.776093 0.000000 -0.000119 0.000405 -0.002312 -109.891899 322.776093
[L_front_hand]
31 241.149185 -0.042021 -3.300071 -178.667953 -1.835447 -27.422350 241.171753
32 241.149185 -0.042021 -3.300071 -178.667953 -1.835447 -27.422342 241.171753
[L_weapon_bone]
31 156.183838 0.000000 0.000000 0.000014 0.000007 0.000001 156.183838
32 156.183838 0.000000 0.000000 0.000014 0.000007 0.000001 156.183838
[L_front_hand01_01]
31 86.095154 20.947098 -0.655860 -0.365371 -0.478091 75.092110 88.609184
32 86.095154 20.947098 -0.655860 -0.366282 -0.477394 75.310593 88.609184
[L_front_hand02_01]
31 86.935165 -11.437475 24.513514 153.946487 -59.758568 -60.843483 91.046425
32 86.935165 -11.437475 24.513514 154.278549 -59.851875 -61.226555 91.046425
[L_front_hand03_01]
31 86.637497 -14.123976 -20.424902 -153.504333 57.989796 -62.217342 90.126129
32 86.637497 -14.123976 -20.424902 -153.811523 58.084942 -62.579281 90.126129
[L_front_hand01_02]
31 71.020905 -0.000179 0.000030 0.000328 -0.002324 -106.046089 71.020905
32 71.020905 -0.000179 0.000030 0.000329 -0.002324 -106.099617 71.020905
[L_front_hand02_02]
31 71.020927 -0.000119 0.000060 0.000328 -0.002324 -106.046089 71.020927
32 71.020927 -0.000119 0.000060 0.000329 -0.002324 -106.099617 71.020927
[L_front_hand03_02]
31 71.020905 -0.000060 0.000060 0.000328 -0.002324 -106.046089 71.020905
32 71.020905 -0.000060 0.000060 0.000329 -0.002324 -106.099617 71.020905
[R_forearm]
31 322.776428 -0.000060 0.000030 0.201770 0.066181 -108.643364 322.776428
32 322.776428 -0.000060 0.000030 0.201827 0.066007 -108.544823 322.776428
[R_front_hand]
31 238.847015 -0.006795 2.210259 -2.635298 -10.645461 -26.312506 238.857239
32 238.847015 -0.006795 2.210259 -2.635298 -10.645461 -26.312506 238.857239
[R_weapon_bone]
31 155.664093 0.002503 -0.000030 0.003487 0.001180 -90.988930 155.664078
32 155.664093 0.002503 -0.000030 0.003487 0.001180 -90.988930 155.664078
[R_front_hand01_01]
31 87.624611 14.231146 22.918642 -154.633499 -59.950634 61.746063 91.683487
32 87.624611 14.231146 22.918642 -154.633514 -59.950626 61.746063 91.683487
[R_front_hand02_01]
31 89.356956 14.367283 -19.491137 154.602661 58.302849 63.744381 92.579636
32 89.356956 14.367283 -19.491137 154.602661 58.302849 63.744381 92.579636
[R_front_hand03_01]
31 87.286232 -22.307278 -0.143439 0.162155 -0.423168 -75.767921 90.091743
32 87.286232 -22.307278 -0.143439 0.162155 -0.423168 -75.767921 90.091743
[R_front_hand01_02]
31 71.020905 0.000060 0.000119 0.002323 -0.000334 106.381714 71.020905
32 71.020905 0.000060 0.000119 0.002323 -0.000334 106.381714 71.020905
[R_front_hand02_02]
31 71.020844 -0.000030 -0.000119 0.002323 -0.000334 106.381714 71.020836
32 71.020844 -0.000030 -0.000119 0.002323 -0.000334 106.381714 71.020836
[R_front_hand03_02]
31 71.020905 0.000000 0.000030 0.002323 -0.000334 106.381714 71.020905
32 71.020905 0.000000 0.000030 0.002323 -0.000334 106.381714 71.020905
[null_rope01_connect]
31 328.732483 0.000000 -0.000238 -135.175095 -53.392467 -172.653412 328.732483
32 328.732483 0.000000 -0.000238 -134.328369 -55.228729 -168.394638 328.732483
[Rope1_Seg01]
31 -0.000029 0.000010 0.000114 99.581108 -20.037088 -172.645691 0.000118
32 -0.000030 0.000009 0.000118 94.876831 -22.460739 -166.451569 0.000122
[Rope1_Seg02]
31 139.999863 -0.000179 0.000000 5.438548 -3.431436 -11.852000 139.999863
32 139.999863 -0.000179 0.000000 2.891577 3.914887 -12.249233 139.999863
[Rope1_Seg03]
31 139.999924 0.000060 -0.000060 55.748711 -56.872059 -63.446823 139.999924
32 139.999924 0.000060 -0.000060 87.308479 -49.661003 -93.304497 139.999924
[Rope1_Seg04]
31 139.999924 -0.000060 -0.000119 -11.372319 -36.647144 9.993327 139.999924
32 139.999924 -0.000060 -0.000119 -9.604860 -32.348568 12.953041 139.999924
[Rope1_Seg05]
31 139.999832 0.000119 -0.000060 -1.126373 -2.253743 0.008975 139.999832
32 139.999832 0.000119 -0.000060 -0.838766 -1.945166 0.263226 139.999832
[Rope1_Seg06]
31 139.999954 0.000119 -0.000060 -0.670776 -1.264609 -0.020618 139.999954
32 139.999954 0.000119 -0.000060 -0.504128 -1.105612 0.135115 139.999954
[Rope1_Seg07]
31 139.999985 0.000060 0.000000 -0.428488 -0.794685 -0.020096 139.999985
32 139.999985 0.000060 0.000000 -0.325220 -0.695477 0.075348 139.999985
[Rope1_Seg09]
31 121.602913 0.000119 -0.000089 -89.793175 -1.359789 0.847147 121.602913
32 121.602913 0.000119 -0.000089 -89.793175 -1.359789 0.847147 121.602913
[L_mid_hand01]
31 103.859421 1.038730 8.195221 130.544373 -67.584534 -38.866943 104.187431
32 103.859421 1.038730 8.195221 130.544373 -67.584534 -38.866943 104.187431
[L_mid_hand02]
31 105.572853 -4.139662 -10.864139 -168.923172 43.409309 -73.498886 106.211075
32 105.572853 -4.139662 -10.864139 -168.923172 43.409309 -73.498886 106.211075
[L_mid_hand03]
31 104.641464 17.579376 -3.913581 -6.012627 17.808174 74.893669 106.179977
32 104.641464 17.579376 -3.913581 -6.012627 17.808174 74.893669 106.179977
[null_rope02_connect]
31 328.732849 0.000179 -0.000119 -121.443077 46.545395 12.025982 328.732849
32 328.732849 0.000179 -0.000119 -120.989716 47.644985 8.204228 328.732849
[Rope2_Seg01]
31 0.000067 0.000038 0.000000 -98.319458 43.713058 -10.491403 0.000077
32 0.000068 0.000034 0.000000 -96.957497 36.107243 -17.375294 0.000076
[Rope2_Seg02]
31 139.999741 -0.000060 -0.000119 6.645666 -24.904833 1.287467 139.999756
32 139.999741 -0.000060 -0.000119 0.794021 -19.544514 6.980841 139.999756
[Rope2_Seg03]
31 140.000107 0.000030 0.000000 5.015320 -17.114954 -4.438592 140.000107
32 140.000107 0.000030 0.000000 3.794178 -15.775645 0.345017 140.000107
[Rope2_Seg04]
31 139.999802 0.000000 -0.000060 -2.501951 -11.347459 14.680012 139.999802
32 139.999802 0.000000 -0.000060 -5.141201 -11.251641 17.609779 139.999802
[Rope2_Seg05]
31 139.999985 -0.000060 0.000119 1.232668 -8.686846 22.655945 139.999985
32 139.999985 -0.000060 0.000119 -1.522329 -7.516922 17.417173 139.999985
[Rope2_Seg06]
31 139.999893 -0.000030 -0.000119 2.443830 -4.190200 9.377759 139.999893
32 139.999893 -0.000030 -0.000119 0.427775 -3.938382 6.775544 139.999893
[Rope2_Seg07]
31 139.999893 0.000060 -0.000060 1.971259 -2.169410 5.299461 139.999893
32 139.999893 0.000060 -0.000060 0.544837 -2.289142 4.028154 139.999893
[Rope2_Seg09]
31 121.338966 0.000089 -0.000060 33.793236 -1.359788 -0.847141 121.338966
32 121.338966 0.000089 -0.000060 33.793236 -1.359788 -0.847141 121.338966
[R_mid_hand01]
31 104.680779 11.144459 -10.335981 -16.212063 45.237247 70.462852 105.778534
32 104.680779 11.144459 -10.335981 -16.212063 45.237247 70.462852 105.778534
[R_mid_hand02]
31 104.070427 2.443552 8.231699 49.067368 -67.749771 39.286453 104.424065
32 104.070427 2.443552 8.231699 49.067368 -67.749771 39.286453 104.424065
[R_mid_hand03]
31 106.028137 -11.221827 -5.996406 -177.101105 15.551026 -76.585571 106.788818
32 106.028137 -11.221827 -5.996406 -177.101105 15.551026 -76.585571 106.788818
[spine02]
31 129.756927 0.001550 0.000119 0.413790 -4.039156 -13.741064 129.756927
32 129.756927 0.001550 0.000119 0.403870 -4.040237 -13.599124 129.756927
[spine03]
31 78.613945 0.081673 -4.898762 1.930327 3.814552 16.987698 78.766472
32 78.613937 0.081669 -4.898755 1.924674 3.817153 16.898891 78.766457
[pelvis]
31 169.435242 0.051022 0.000000 -0.062094 -0.179671 15.125052 169.435257
32 169.435242 0.051022 0.000000 -0.061844 -0.179757 14.965448 169.435257
[null_rope03_connect]
31 -1.257226 -2.466202 137.391083 -137.050430 -88.174683 -149.813919 137.418976
32 -1.257226 -2.466202 137.391083 -126.681801 -89.011665 -159.596649 137.418976
[null_rope04_connect]
31 -1.259640 -2.480268 -137.844437 -137.050430 -88.174683 -149.813919 137.872513
32 -1.259640 -2.480268 -137.844437 -126.681801 -89.011665 -159.596649 137.872513
[Rope3_Seg01]
31 -0.000005 -0.000477 -0.000153 -144.729477 -39.519707 -60.420830 0.000501
32 -0.000004 -0.000490 -0.000153 -139.340744 -33.031937 -65.522163 0.000513
[Rope3_Seg02]
31 139.999924 -0.000119 0.000060 3.706146 -8.716212 0.473448 139.999924
32 139.999924 -0.000119 0.000060 2.588636 -7.844156 -0.275006 139.999924
[Rope3_Seg03]
31 139.999924 -0.000119 0.000119 1.660931 -2.827555 1.331230 139.999924
32 139.999924 -0.000119 0.000119 0.887410 -2.482690 -0.467724 139.999924
[Rope3_Seg04]
31 139.999924 0.000119 0.000000 2.583781 -5.225259 0.487903 139.999924
32 139.999924 0.000119 0.000000 2.457898 -5.698122 0.399386 139.999924
[Rope3_Seg05]
31 139.999924 -0.000238 0.000060 17.254358 -25.522200 -0.258406 139.999924
32 139.999924 -0.000238 0.000060 13.520476 -23.971409 4.544510 139.999924
[Rope3_Seg06]
31 139.999893 -0.000119 -0.000060 29.590364 -33.352119 11.418821 139.999893
32 139.999893 -0.000119 -0.000060 18.162981 -27.325529 13.595851 139.999893
[Rope3_Seg07]
31 139.999771 0.000060 -0.000119 13.188512 -12.738674 15.647840 139.999771
32 139.999771 0.000060 -0.000119 9.400208 -12.282674 12.956964 139.999771
[Rope3_Seg08]
31 139.999985 -0.000060 0.000000 3.431520 -2.380376 5.108750 139.999985
32 139.999985 -0.000060 0.000000 2.680630 -2.575283 3.925584 139.999985
[Rope3_Seg09]
31 90.185997 -0.000179 -0.000060 89.793228 -1.359877 -0.847183 90.185997
32 90.185997 -0.000179 -0.000060 89.793228 -1.359877 -0.847183 90.185997
[R_rear_hand01]
31 103.366196 -6.073594 -10.757982 -177.714203 24.565960 -73.910950 104.101845
32 103.366196 -6.073594 -10.757982 -177.714203 24.565960 -73.910950 104.101845
[R_rear_hand02]
31 100.509819 12.039542 -7.992327 -12.874834 36.868492 72.167213 101.543350
32 100.509819 12.039542 -7.992327 -12.874829 36.868488 72.167213 101.543350
[R_rear_hand03]
31 101.539970 5.215704 5.435467 71.484627 -71.816643 21.513817 101.819031
32 101.539970 5.215704 5.435467 71.484581 -71.816628 21.513813 101.819031
[Rope4_Seg01]
31 0.000000 -0.000925 -0.000267 51.682465 -12.165411 -116.296967 0.000963
32 0.000000 -0.000955 -0.000271 50.418671 -7.926978 -115.240280 0.000992
[Rope4_Seg02]
31 139.999985 0.000060 0.000119 -0.160965 -7.505670 -5.005183 139.999985
32 139.999985 0.000060 0.000119 -0.064648 -5.380659 -3.436881 139.999985
[Rope4_Seg03]
31 139.999924 0.000000 -0.000238 2.442132 -18.937513 -7.571936 139.999924
32 139.999924 0.000000 -0.000238 2.066509 -15.411287 -4.736570 139.999924
[Rope4_Seg04]
31 139.999985 0.000000 0.000119 -41.889030 -18.454679 -30.365437 139.999985
32 139.999985 0.000000 0.000119 -29.695866 -9.330712 -33.651524 139.999985
[Rope4_Seg05]
31 139.999802 -0.000060 -0.000119 -72.344574 48.016674 -60.818199 139.999802
32 139.999802 -0.000060 -0.000119 -52.893974 48.564453 -52.445179 139.999802
[Rope4_Seg06]
31 139.999924 0.000000 0.000060 -0.060525 15.544054 -0.345982 139.999924
32 139.999924 0.000000 0.000060 0.158850 11.636369 -2.751398 139.999924
[Rope4_Seg07]
31 139.999802 0.000000 0.000000 0.355313 3.726702 -0.080792 139.999802
32 139.999802 0.000000 0.000000 0.332619 2.214124 -0.536038 139.999802
[Rope4_Seg08]
31 139.999924 0.000000 0.000119 -1.447464 0.036310 0.001203 139.999924
32 139.999924 0.000000 0.000119 -1.447465 0.001681 0.001639 139.999924
[Rope4_Seg09]
31 90.185791 0.000060 0.000060 -135.617828 2.228885 0.850567 90.185791
32 90.185791 0.000060 0.000060 -135.617828 2.228885 0.850567 90.185791
[L_rear_hand01]
31 101.696655 -8.392275 -7.654577 -12.874829 -36.868488 107.832764 102.329041
32 101.696655 -8.392275 -7.654577 -12.874829 -36.868488 107.832764 102.329041
[L_rear_hand02]
31 102.726799 -1.568258 5.773216 71.484581 71.816628 158.486160 102.900848
32 102.726799 -1.568258 5.773216 71.484581 71.816628 158.486160 102.900848
[L_rear_hand03]
31 104.552910 9.721220 -10.420293 -177.714203 -24.565960 -106.089035 105.519653
32 104.552910 9.721220 -10.420293 -177.714203 -24.565960 -106.089035 105.519653
